<?xml version="1.0" encoding="iso-8859-1"?>
<!-- Generator: Adobe Illustrator 24.3.0, SVG Export Plug-In . SVG Version: 6.00 Build 0)  -->
<svg version="1.1" xmlns="http://www.w3.org/2000/svg" xmlns:xlink="http://www.w3.org/1999/xlink" x="0px" y="0px"
	 viewBox="0 0 512 512" style="enable-background:new 0 0 512 512;" xml:space="preserve">
<g id="_x32_64_x2C__App_x2C__Crm_x2C__Crm_Software_x2C__Software">
	<g>
		<path style="fill:#4E5F7F;" d="M476,118v246c0,17.67-14.329,32-32,32c-38.167,0-364.8,0-376,0c-17.67,0-32-14.33-32-32V118
			c0-17.67,14.33-32,32-32c17.933,0,359.528,0,376,0C461.67,86,476,100.33,476,118z"/>
		<path style="fill:#E4F0FD;" d="M446,306H66V116c19.818,0,361.903,0,380,0C446,121.377,446,294.289,446,306z"/>
		<path style="fill:#28D481;" d="M297.34,199.66c2.26,2.26,3.66,5.39,3.66,8.84s-1.4,6.58-3.66,8.84c-2.26,2.26-5.39,3.66-8.84,3.66
			c-6.9,0-12.5-5.6-12.5-12.5c0-3.45,1.4-6.58,3.66-8.84c2.26-2.26,5.39-3.66,8.84-3.66S295.08,197.4,297.34,199.66z"/>
		<path style="fill:#65E4FD;" d="M297.34,154.66c2.26,2.26,3.66,5.39,3.66,8.84s-1.4,6.58-3.66,8.84c-2.26,2.26-5.39,3.66-8.84,3.66
			c-6.9,0-12.5-5.6-12.5-12.5c0-3.45,1.4-6.58,3.66-8.84c2.26-2.26,5.39-3.66,8.84-3.66S295.08,152.4,297.34,154.66z"/>
		<path style="fill:#65E4FD;" d="M297.34,244.66c2.26,2.26,3.66,5.39,3.66,8.84s-1.4,6.58-3.66,8.84c-2.26,2.26-5.39,3.66-8.84,3.66
			c-6.9,0-12.5-5.6-12.5-12.5c0-3.45,1.4-6.58,3.66-8.84c2.26-2.26,5.39-3.66,8.84-3.66S295.08,242.4,297.34,244.66z"/>
		<path style="fill:#65E4FD;" d="M403.5,241c6.9,0,12.5,5.6,12.5,12.5c0,3.45-1.4,6.58-3.66,8.84c-2.26,2.26-5.39,3.66-8.84,3.66
			h-70c-6.9,0-12.5-5.6-12.5-12.5c0-3.45,1.4-6.58,3.66-8.84c2.26-2.26,5.39-3.66,8.84-3.66H403.5z"/>
		<path style="fill:#65E4FD;" d="M403.5,196c6.9,0,12.5,5.6,12.5,12.5c0,3.45-1.4,6.58-3.66,8.84c-2.26,2.26-5.39,3.66-8.84,3.66
			h-70c-6.9,0-12.5-5.6-12.5-12.5c0-3.45,1.4-6.58,3.66-8.84c2.26-2.26,5.39-3.66,8.84-3.66H403.5z"/>
		<path style="fill:#65E4FD;" d="M403.5,151c6.9,0,12.5,5.6,12.5,12.5c0,3.45-1.4,6.58-3.66,8.84c-2.26,2.26-5.39,3.66-8.84,3.66
			h-70c-6.9,0-12.5-5.6-12.5-12.5c0-3.45,1.4-6.58,3.66-8.84c2.26-2.26,5.39-3.66,8.84-3.66H403.5z"/>
		<path style="fill:#FD5959;" d="M155.21,201.46c29.94,0,54.21,24.27,54.21,54.21c0,7.191-1.41,14.05-3.96,20.33h-100.5
			c-2.55-6.28-3.96-13.14-3.96-20.33C101,225.73,125.27,201.46,155.21,201.46L141.66,241l13.55,15l13.55-15L155.21,201.46z"/>
		<polygon style="fill:#FDDD41;" points="155.21,201.46 168.76,241 155.21,256 141.66,241 		"/>
		<path style="fill:#FCDBCB;" d="M155.21,147.25c14.97,0,27.11,12.14,27.11,27.11c0,14.97-12.141,27.1-27.11,27.1
			s-27.1-12.13-27.1-27.1C128.111,159.39,140.241,147.25,155.21,147.25z"/>
		<path style="fill:#FD5959;" d="M428.5,26c9.67,0,17.5,7.84,17.5,17.5S438.17,61,428.5,61c-9.67,0-17.5-7.84-17.5-17.5
			S418.83,26,428.5,26z"/>
		<circle style="fill:#28D481;" cx="101" cy="456" r="30"/>
		<rect x="66" y="306" style="fill:#65E4FD;" width="380" height="30"/>
		<rect x="221" y="421" style="fill:#2E304C;" width="70" height="40"/>
		<path style="fill:#3D4665;" d="M333.5,461c6.9,0,12.5,5.6,12.5,12.5c0,6.912-5.6,12.5-12.5,12.5h-155c-6.9,0-12.5-5.6-12.5-12.5
			c0-6.912,5.6-12.5,12.5-12.5C210.713,461,300.222,461,333.5,461z"/>
		<path style="fill:#3D4665;" d="M331,396v5.5c0,10.77-8.73,19.5-19.5,19.5H291h-70h-20.5c-10.77,0-19.5-8.73-19.5-19.5V396H331z"/>
		<circle cx="458.5" cy="443.5" r="7.5"/>
		<circle cx="393.5" cy="448.5" r="7.5"/>
		<circle cx="353.5" cy="58.5" r="7.5"/>
		<path d="M263.071,358.93c1.81,1.811,2.93,4.311,2.93,7.07s-1.12,5.26-2.93,7.07c-1.811,1.81-4.311,2.93-7.07,2.93
			c-5.52,0-10-4.48-10-10c0-2.76,1.12-5.26,2.93-7.07c1.811-1.81,4.311-2.93,7.07-2.93C258.76,356,261.26,357.12,263.071,358.93z"/>
		<circle cx="153.5" cy="418.5" r="7.5"/>
		<circle cx="93.5" cy="43.5" r="7.5"/>
		<circle cx="43.5" cy="433.5" r="7.5"/>
		<path d="M221,426h-20.5c-13.51,0-24.5-10.99-24.5-24.5V396c0-2.762,2.238-5,5-5c2.761,0,5,2.238,5,5v5.5
			c0,7.995,6.505,14.5,14.5,14.5H221c2.761,0,5,2.238,5,5S223.761,426,221,426z"/>
		<path d="M311.5,426H291c-2.762,0-5-2.238-5-5s2.238-5,5-5h20.5c7.995,0,14.5-6.505,14.5-14.5V396c0-2.762,2.238-5,5-5
			c2.762,0,5,2.238,5,5v5.5C336,415.01,325.01,426,311.5,426z"/>
		<path d="M291,466c-2.762,0-5-2.238-5-5v-35h-60v35c0,2.762-2.239,5-5,5c-2.762,0-5-2.238-5-5v-40c0-2.762,2.238-5,5-5h70
			c2.762,0,5,2.238,5,5v40C296,463.762,293.762,466,291,466z"/>
		<path d="M333.5,491h-155c-9.649,0-17.5-7.851-17.5-17.5c0-4.677,1.82-9.071,5.125-12.376C169.43,457.82,173.825,456,178.5,456h155
			c9.649,0,17.5,7.851,17.5,17.5c0,4.676-1.82,9.07-5.125,12.375C342.571,489.18,338.176,491,333.5,491z M178.5,466
			c-2.005,0-3.889,0.78-5.304,2.195c-1.417,1.416-2.196,3.3-2.196,5.305c0,4.136,3.364,7.5,7.5,7.5h155
			c2.005,0,3.889-0.78,5.305-2.195c1.415-1.416,2.195-3.3,2.195-5.305c0-4.136-3.364-7.5-7.5-7.5H178.5z"/>
		<path d="M101,491c-19.299,0-35-15.701-35-35s15.701-35,35-35c19.299,0,35,15.701,35,35S120.299,491,101,491z M101,431
			c-13.785,0-25,11.215-25,25s11.215,25,25,25c13.785,0,25-11.215,25-25S114.785,431,101,431z"/>
		<path d="M446,341H66c-2.762,0-5-2.238-5-5V116c0-2.761,2.238-5,5-5h380c2.762,0,5,2.239,5,5v220C451,338.762,448.762,341,446,341z
			 M71,331h370V121H71V331z"/>
		<path d="M444,401H68c-20.402,0-37-16.598-37-37V118c0-20.402,16.598-37,37-37h376c20.402,0,37,16.598,37,37v246
			C481,384.402,464.402,401,444,401z M68,91c-14.888,0-27,12.112-27,27v246c0,14.888,12.112,27,27,27h376c14.888,0,27-12.112,27-27
			V118c0-14.888-12.112-27-27-27H68z"/>
		<path d="M446,311H66c-2.762,0-5-2.238-5-5s2.238-5,5-5h380c2.762,0,5,2.238,5,5S448.762,311,446,311z"/>
		<path d="M428.5,66C416.094,66,406,55.907,406,43.5S416.094,21,428.5,21c12.406,0,22.5,10.093,22.5,22.5S440.906,66,428.5,66z
			 M428.5,31c-6.892,0-12.5,5.607-12.5,12.5S421.608,56,428.5,56c6.892,0,12.5-5.607,12.5-12.5S435.392,31,428.5,31z"/>
		<path d="M288.5,181c-9.649,0-17.5-7.851-17.5-17.5c0-4.676,1.82-9.071,5.125-12.376c3.304-3.304,7.698-5.124,12.375-5.124
			c4.677,0,9.071,1.82,12.376,5.125c3.304,3.304,5.124,7.699,5.124,12.375s-1.82,9.071-5.125,12.376
			C297.572,179.18,293.177,181,288.5,181z M288.5,156c-2.005,0-3.889,0.78-5.304,2.195c-1.417,1.417-2.196,3.3-2.196,5.305
			c0,4.136,3.364,7.5,7.5,7.5c2.005,0,3.889-0.78,5.304-2.195c1.417-1.417,2.196-3.3,2.196-5.305s-0.779-3.888-2.195-5.304
			C292.389,156.78,290.505,156,288.5,156z"/>
		<path d="M403.5,181h-70c-9.649,0-17.5-7.851-17.5-17.5c0-4.676,1.82-9.071,5.125-12.376c3.304-3.304,7.698-5.124,12.375-5.124h70
			c9.649,0,17.5,7.851,17.5,17.5c0,4.676-1.82,9.071-5.125,12.376C412.572,179.18,408.177,181,403.5,181z M333.5,156
			c-2.005,0-3.889,0.78-5.304,2.195c-1.416,1.417-2.196,3.3-2.196,5.305c0,4.136,3.364,7.5,7.5,7.5h70
			c2.005,0,3.889-0.78,5.304-2.195c1.416-1.417,2.196-3.3,2.196-5.305c0-4.136-3.364-7.5-7.5-7.5H333.5z"/>
		<path d="M288.5,226c-9.649,0-17.5-7.851-17.5-17.5c0-4.676,1.82-9.071,5.125-12.376c3.304-3.304,7.698-5.124,12.375-5.124
			c4.677,0,9.071,1.82,12.376,5.125c3.304,3.304,5.124,7.699,5.124,12.375s-1.82,9.071-5.125,12.376
			C297.572,224.18,293.177,226,288.5,226z M288.5,201c-2.005,0-3.889,0.78-5.304,2.195c-1.417,1.417-2.196,3.3-2.196,5.305
			c0,4.136,3.364,7.5,7.5,7.5c2.005,0,3.889-0.78,5.304-2.195c1.417-1.417,2.196-3.3,2.196-5.305s-0.779-3.888-2.195-5.304
			C292.389,201.78,290.505,201,288.5,201z"/>
		<path d="M403.5,226h-70c-9.649,0-17.5-7.851-17.5-17.5c0-4.676,1.82-9.071,5.125-12.376c3.304-3.304,7.698-5.124,12.375-5.124h70
			c9.649,0,17.5,7.851,17.5,17.5c0,4.676-1.82,9.071-5.125,12.376C412.572,224.18,408.177,226,403.5,226z M333.5,201
			c-2.005,0-3.889,0.78-5.304,2.195c-1.416,1.417-2.196,3.3-2.196,5.305c0,4.136,3.364,7.5,7.5,7.5h70
			c2.005,0,3.889-0.78,5.304-2.195c1.416-1.417,2.196-3.3,2.196-5.305c0-4.136-3.364-7.5-7.5-7.5H333.5z"/>
		<path d="M288.5,271c-9.649,0-17.5-7.851-17.5-17.5c0-4.676,1.82-9.071,5.125-12.376c3.304-3.304,7.698-5.124,12.375-5.124
			c4.677,0,9.071,1.82,12.376,5.125c3.304,3.304,5.124,7.699,5.124,12.375c0,4.676-1.82,9.07-5.125,12.375
			C297.571,269.18,293.176,271,288.5,271z M288.5,246c-2.005,0-3.889,0.78-5.304,2.195c-1.417,1.417-2.196,3.3-2.196,5.305
			c0,4.136,3.364,7.5,7.5,7.5c2.005,0,3.889-0.779,5.305-2.195c1.416-1.416,2.195-3.3,2.195-5.305c0-2.004-0.779-3.888-2.195-5.304
			C292.389,246.78,290.505,246,288.5,246z"/>
		<path d="M403.5,271h-70c-9.649,0-17.5-7.851-17.5-17.5c0-4.676,1.82-9.071,5.125-12.376c3.304-3.304,7.698-5.124,12.375-5.124h70
			c9.649,0,17.5,7.851,17.5,17.5c0,4.676-1.82,9.07-5.125,12.375C412.571,269.18,408.176,271,403.5,271z M333.5,246
			c-2.005,0-3.889,0.78-5.304,2.195c-1.416,1.417-2.196,3.3-2.196,5.305c0,4.136,3.364,7.5,7.5,7.5h70
			c2.005,0,3.889-0.78,5.305-2.195c1.415-1.416,2.195-3.3,2.195-5.305c0-4.136-3.364-7.5-7.5-7.5H333.5z"/>
		<path d="M155.21,206.46c-17.7,0-32.101-14.4-32.101-32.1c0-17.706,14.4-32.11,32.101-32.11c17.705,0,32.109,14.404,32.109,32.11
			C187.32,192.06,172.915,206.46,155.21,206.46z M155.21,152.25c-12.187,0-22.101,9.919-22.101,22.11
			c0,12.186,9.914,22.1,22.101,22.1c12.191,0,22.109-9.914,22.109-22.1C177.32,162.169,167.402,152.25,155.21,152.25z"/>
		<path d="M155.21,261c-1.414,0-2.763-0.599-3.711-1.648l-13.55-15c-1.218-1.349-1.608-3.253-1.02-4.973l13.55-39.54
			c0.693-2.021,2.594-3.379,4.73-3.379s4.037,1.358,4.729,3.379l13.55,39.54c0.59,1.72,0.199,3.624-1.02,4.973l-13.55,15
			C157.972,260.401,156.624,261,155.21,261z M147.345,239.835l7.865,8.706l7.864-8.706l-7.864-22.951L147.345,239.835z"/>
		<path d="M205.46,281h-100.5c-2.035,0-3.867-1.233-4.633-3.119C97.456,270.809,96,263.336,96,255.67
			c0-32.648,26.562-59.21,59.21-59.21s59.21,26.561,59.21,59.21c0,7.666-1.456,15.139-4.327,22.211
			C209.327,279.767,207.495,281,205.46,281z M108.448,271h93.525c1.625-4.935,2.447-10.077,2.447-15.33
			c0-27.134-22.076-49.21-49.21-49.21c-27.135,0-49.21,22.076-49.21,49.21C106,260.923,106.822,266.065,108.448,271z"/>
		<path d="M246,271c-2.762,0-5-2.238-5-5V156c0-2.761,2.238-5,5-5c2.761,0,5,2.239,5,5v110C251,268.762,248.761,271,246,271z"/>
	</g>
</g>
<g id="Layer_1">
</g>
</svg>
